<svg width="48" height="48" viewBox="0 0 48 48" fill="none" xmlns="http://www.w3.org/2000/svg">
<g clip-path="url(#clip0_10308_32160)">
<path d="M36.75 0H11.25C5.0368 0 0 5.0368 0 11.25V36.75C0 42.9632 5.0368 48 11.25 48H36.75C42.9632 48 48 42.9632 48 36.75V11.25C48 5.0368 42.9632 0 36.75 0Z" fill="url(#paint0_radial_10308_32160)"/>
<path d="M36.75 0H11.25C5.0368 0 0 5.0368 0 11.25V36.75C0 42.9632 5.0368 48 11.25 48H36.75C42.9632 48 48 42.9632 48 36.75V11.25C48 5.0368 42.9632 0 36.75 0Z" fill="url(#paint1_radial_10308_32160)"/>
<path d="M24.0017 5C18.8417 5 18.194 5.02261 16.1674 5.11476C14.1447 5.20748 12.764 5.52762 11.556 5.99749C10.3061 6.48275 9.24612 7.13197 8.1901 8.18836C7.13313 9.24456 6.4839 10.3046 5.99712 11.5538C5.52592 12.7622 5.20539 14.1435 5.11438 16.1652C5.02375 18.1919 5 18.8398 5 24C5 29.1602 5.0228 29.8058 5.11476 31.8323C5.20786 33.855 5.52801 35.2357 5.9975 36.4437C6.48314 37.6935 7.13237 38.7535 8.18877 39.8096C9.2446 40.8665 10.3046 41.5173 11.5535 42.0025C12.7625 42.4724 14.1434 42.7925 16.1657 42.8852C18.1925 42.9774 18.8396 43 23.9994 43C29.16 43 29.8056 42.9774 31.8322 42.8852C33.8549 42.7925 35.2372 42.4724 36.4461 42.0025C37.6954 41.5173 38.7539 40.8665 39.8095 39.8096C40.8665 38.7535 41.5155 37.6935 42.0025 36.4443C42.4695 35.2357 42.7902 33.8546 42.8852 31.8327C42.9762 29.8062 43 29.1602 43 24C43 18.8398 42.9762 18.1923 42.8852 16.1656C42.7902 14.1429 42.4695 12.7624 42.0025 11.5544C41.5155 10.3046 40.8665 9.24456 39.8095 8.18836C38.7527 7.13159 37.6958 6.48237 36.445 5.99768C35.2337 5.52762 33.8523 5.20729 31.8295 5.11476C29.8028 5.02261 29.1575 5 23.9958 5H24.0017ZM22.2972 8.42396C22.8032 8.4232 23.3677 8.42396 24.0017 8.42396C29.0749 8.42396 29.6761 8.4422 31.6794 8.5332C33.5319 8.61794 34.5374 8.92745 35.2071 9.18756C36.0939 9.53184 36.726 9.94356 37.3906 10.6087C38.0556 11.2737 38.4672 11.907 38.8124 12.7937C39.0725 13.4625 39.3824 14.468 39.4668 16.3205C39.5578 18.3234 39.5775 18.925 39.5775 23.9956C39.5775 29.0663 39.5578 29.668 39.4668 31.6708C39.382 33.5233 39.0725 34.5287 38.8124 35.1977C38.4681 36.0844 38.0556 36.7158 37.3906 37.3804C36.7256 38.0454 36.0943 38.457 35.2071 38.8014C34.5382 39.0627 33.5319 39.3714 31.6794 39.4562C29.6764 39.5472 29.0749 39.5669 24.0017 39.5669C18.9283 39.5669 18.327 39.5472 16.3242 39.4562C14.4717 39.3707 13.4662 39.0611 12.7959 38.801C11.9093 38.4566 11.2759 38.045 10.6109 37.38C9.94589 36.7151 9.53435 36.0833 9.18912 35.1962C8.92901 34.5272 8.61912 33.5218 8.53476 31.6693C8.44375 29.6663 8.42551 29.0648 8.42551 23.9909C8.42551 18.9172 8.44375 18.3187 8.53476 16.3157C8.6195 14.4632 8.92901 13.4578 9.18912 12.788C9.53359 11.9013 9.94589 11.268 10.6111 10.603C11.2761 9.93805 11.9093 9.52632 12.7961 9.18129C13.4658 8.92004 14.4717 8.61129 16.3242 8.52617C18.0769 8.44695 18.7562 8.4232 22.2972 8.41921V8.42396ZM34.1439 11.5787C32.8852 11.5787 31.8639 12.599 31.8639 13.8579C31.8639 15.1166 32.8852 16.1379 34.1439 16.1379C35.4027 16.1379 36.4239 15.1166 36.4239 13.8579C36.4239 12.5992 35.4027 11.5779 34.1439 11.5779V11.5787ZM24.0017 14.2426C18.6133 14.2426 14.2444 18.6115 14.2444 24C14.2444 29.3885 18.6133 33.7553 24.0017 33.7553C29.3903 33.7553 33.7576 29.3885 33.7576 24C33.7576 18.6117 29.3899 14.2426 24.0013 14.2426H24.0017ZM24.0017 17.6666C27.4994 17.6666 30.3352 20.5019 30.3352 24C30.3352 27.4977 27.4994 30.3334 24.0017 30.3334C20.5038 30.3334 17.6684 27.4977 17.6684 24C17.6684 20.5019 20.5038 17.6666 24.0017 17.6666Z" fill="white"/>
</g>
<defs>
<radialGradient id="paint0_radial_10308_32160" cx="0" cy="0" r="1" gradientUnits="userSpaceOnUse" gradientTransform="translate(12.75 51.6969) rotate(-90) scale(47.5716 44.2453)">
<stop stop-color="#FFDD55"/>
<stop offset="0.1" stop-color="#FFDD55"/>
<stop offset="0.5" stop-color="#FF543E"/>
<stop offset="1" stop-color="#C837AB"/>
</radialGradient>
<radialGradient id="paint1_radial_10308_32160" cx="0" cy="0" r="1" gradientUnits="userSpaceOnUse" gradientTransform="translate(-8.04019 3.45769) rotate(78.681) scale(21.2648 87.654)">
<stop stop-color="#3771C8"/>
<stop offset="0.128" stop-color="#3771C8"/>
<stop offset="1" stop-color="#6600FF" stop-opacity="0"/>
</radialGradient>
<clipPath id="clip0_10308_32160">
<rect width="48" height="48" fill="white"/>
</clipPath>
</defs>
</svg>
