<svg xmlns="http://www.w3.org/2000/svg" xmlns:xlink="http://www.w3.org/1999/xlink" viewBox="0,0,256,256" width="80px" height="80px" fill-rule="nonzero"><g fill="#d6a63a" fill-rule="nonzero" stroke="none" stroke-width="1" stroke-linecap="butt" stroke-linejoin="miter" stroke-miterlimit="10" stroke-dasharray="" stroke-dashoffset="0" font-family="none" font-weight="none" font-size="none" text-anchor="none" style="mix-blend-mode: normal"><g transform="translate(0.01875,256) rotate(-90) scale(3.2,3.2)"><path d="M50,7c-12.69141,0 -23,10.30859 -23,23c0,5.09375 1.66406,9.80078 4.47266,13.61328l-4.24609,4.24609c-0.33984,-0.125 -0.69531,-0.19922 -1.05469,-0.19922c-0.76953,0 -1.53906,0.29297 -2.12109,0.875l-16.17187,16.17188c-1.16406,1.16406 -1.16406,3.07813 0,4.24219l3.17188,3.17188c1.16406,1.16406 3.07813,1.16406 4.24219,0l16.17188,-16.17187c0.85156,-0.85156 1.07422,-2.10547 0.67578,-3.17578l4.24609,-4.24609c3.8125,2.80859 8.51953,4.47266 13.61328,4.47266c12.69141,0 23,-10.30859 23,-23c0,-12.69141 -10.30859,-23 -23,-23zM50,9c11.60938,0 21,9.39063 21,21c0,11.60938 -9.39062,21 -21,21c-11.60937,0 -21,-9.39062 -21,-21c0,-11.60937 9.39063,-21 21,-21zM50,11c-0.55078,0 -1,0.44922 -1,1c0,0.55078 0.44922,1 1,1c0.55078,0 1,-0.44922 1,-1c0,-0.55078 -0.44922,-1 -1,-1zM45.34766,11.61328c-0.02344,0 -0.04687,0 -0.06641,0c-0.07031,0.00781 -0.13281,0.01563 -0.19922,0.03516c-0.53516,0.14453 -0.85156,0.69141 -0.70703,1.22656c0.14453,0.53125 0.69141,0.84766 1.22266,0.70313c0.53516,-0.14062 0.85156,-0.6875 0.71094,-1.22266c-0.11719,-0.43359 -0.50781,-0.73828 -0.96094,-0.74219zM54.65234,11.61328c-0.44922,0.00391 -0.84375,0.30859 -0.96094,0.74219c-0.14062,0.53516 0.17578,1.08203 0.71094,1.22266c0.53125,0.14453 1.07813,-0.17187 1.22266,-0.70312c0.14453,-0.53516 -0.17187,-1.08203 -0.70703,-1.22656c-0.08594,-0.02344 -0.17578,-0.03516 -0.26562,-0.03516zM40.97656,13.41016c-0.16797,0.00391 -0.33203,0.05078 -0.47656,0.13672c-0.23047,0.12891 -0.39844,0.34766 -0.46875,0.60547c-0.06641,0.25781 -0.03125,0.53125 0.10156,0.75781c0.13281,0.23047 0.35156,0.39844 0.60938,0.46875c0.25391,0.06641 0.52734,0.03125 0.75781,-0.10156c0.47656,-0.27734 0.64063,-0.88672 0.36328,-1.36719c-0.17969,-0.31641 -0.51953,-0.50781 -0.88672,-0.5zM58.95313,13.41406c-0.33984,0.01563 -0.64844,0.20313 -0.82031,0.5c-0.27734,0.47656 -0.10937,1.08984 0.36719,1.36719c0.47656,0.27344 1.08984,0.10938 1.36328,-0.36719c0.13672,-0.23047 0.17188,-0.50391 0.10156,-0.75781c-0.06641,-0.25781 -0.23437,-0.47656 -0.46484,-0.60937c-0.16406,-0.09766 -0.35547,-0.14062 -0.54687,-0.13281zM37.28516,16.26953c-0.26953,0 -0.53125,0.10547 -0.72266,0.29297c-0.38672,0.39063 -0.38672,1.02734 0,1.41797c0.39063,0.38672 1.02734,0.38672 1.41797,0c0.38672,-0.39062 0.38672,-1.02734 0,-1.41797c-0.1875,-0.18359 -0.43359,-0.28906 -0.69531,-0.29297zM62.74219,16.26953c-0.26953,-0.00391 -0.53125,0.10156 -0.72266,0.29297c-0.39062,0.39063 -0.39062,1.02734 0,1.41797c0.39063,0.38672 1.02344,0.38672 1.41406,0c0.39063,-0.39062 0.39063,-1.02734 0,-1.41797c-0.18359,-0.18359 -0.42969,-0.28516 -0.69141,-0.29297zM65.5625,20c-0.16797,0.00391 -0.33203,0.05078 -0.47656,0.13672c-0.47656,0.27344 -0.64062,0.88672 -0.36719,1.36328c0.27734,0.47656 0.89063,0.64063 1.36719,0.36328c0.47656,-0.27344 0.64453,-0.88672 0.36719,-1.36328c-0.18359,-0.31641 -0.52344,-0.50781 -0.89062,-0.5zM34.36328,20c-0.33594,0.01953 -0.64453,0.20703 -0.81641,0.5c-0.27734,0.47656 -0.11328,1.08984 0.36328,1.36328c0.48047,0.27734 1.08984,0.11328 1.36719,-0.36328c0.27734,-0.47656 0.11328,-1.08984 -0.36719,-1.36328c-0.16406,-0.09766 -0.35547,-0.14453 -0.54687,-0.13672zM32.60547,24.34375c-0.45312,0.00391 -0.84375,0.30469 -0.96094,0.73828c-0.14062,0.53516 0.17578,1.08203 0.71094,1.22656c0.53125,0.14453 1.07813,-0.17187 1.22266,-0.70703c0.14453,-0.53516 -0.17187,-1.08203 -0.70703,-1.22656c-0.08594,-0.02344 -0.17578,-0.03516 -0.26562,-0.03125zM67.39453,24.34375c-0.02344,-0.00391 -0.04687,0 -0.07031,0c-0.06641,0.00391 -0.13281,0.01563 -0.19922,0.03125c-0.53125,0.14453 -0.84766,0.69141 -0.70312,1.22656c0.14063,0.53516 0.6875,0.85156 1.22266,0.70703c0.25781,-0.06641 0.47656,-0.23437 0.60938,-0.46484c0.13281,-0.23047 0.16797,-0.50391 0.10156,-0.76172c-0.11719,-0.43359 -0.50781,-0.73437 -0.96094,-0.73828zM32,29c-0.55078,0 -1,0.44922 -1,1c0,0.55078 0.44922,1 1,1c0.55078,0 1,-0.44922 1,-1c0,-0.55078 -0.44922,-1 -1,-1zM68,29c-0.55078,0 -1,0.44922 -1,1c0,0.55078 0.44922,1 1,1c0.55078,0 1,-0.44922 1,-1c0,-0.55078 -0.44922,-1 -1,-1zM32.65234,33.66016c-0.10156,-0.00391 -0.20312,0.00781 -0.29687,0.03125c-0.53516,0.14453 -0.85156,0.69141 -0.71094,1.22656c0.14453,0.53516 0.69141,0.85156 1.22656,0.70703c0.53516,-0.14453 0.85156,-0.69141 0.70703,-1.22266c-0.11328,-0.42578 -0.48828,-0.72656 -0.92578,-0.74219zM67.375,33.66016c-0.44922,0.00391 -0.83984,0.30859 -0.95312,0.74219c-0.07031,0.25781 -0.03516,0.53125 0.09766,0.75781c0.13281,0.23047 0.35156,0.39844 0.60938,0.46484c0.53516,0.14453 1.08203,-0.17187 1.22656,-0.70312c0.14063,-0.53516 -0.17578,-1.08203 -0.71094,-1.22656c-0.08594,-0.02344 -0.17578,-0.03516 -0.26953,-0.03516zM34.38672,38c-0.16797,0.00391 -0.32812,0.05078 -0.47656,0.13281c-0.22656,0.13281 -0.39453,0.35156 -0.46484,0.60938c-0.07031,0.25391 -0.03516,0.52734 0.10156,0.75781c0.12891,0.23047 0.34766,0.39844 0.60547,0.46484c0.25781,0.07031 0.53125,0.03516 0.75781,-0.10156c0.48047,-0.27344 0.64453,-0.88672 0.36719,-1.36328c-0.18359,-0.31641 -0.52344,-0.50781 -0.89062,-0.5zM65.54297,38.00391c-0.34375,0.01563 -0.65234,0.20313 -0.82422,0.49609c-0.13281,0.23047 -0.16797,0.50391 -0.09766,0.76172c0.07031,0.25781 0.23828,0.47656 0.46875,0.60938c0.47656,0.27344 1.08594,0.10938 1.36328,-0.37109c0.27734,-0.47656 0.11328,-1.08594 -0.36328,-1.36328c-0.16797,-0.09766 -0.35937,-0.14062 -0.54687,-0.13281zM37.28516,41.73047c-0.26953,-0.00391 -0.53125,0.10156 -0.72266,0.28906c-0.38672,0.39063 -0.38672,1.02734 0,1.41797c0.39063,0.38672 1.02734,0.38672 1.41797,0c0.38672,-0.39062 0.38672,-1.02734 0,-1.41797c-0.1875,-0.18359 -0.43359,-0.28906 -0.69531,-0.28906zM62.74219,41.73047c-0.26953,-0.00781 -0.53125,0.09766 -0.72266,0.28906c-0.39062,0.39063 -0.39062,1.02734 0,1.41797c0.39063,0.38672 1.02344,0.38672 1.41406,0c0.39063,-0.39062 0.39063,-1.02734 0,-1.41797c-0.18359,-0.18359 -0.42969,-0.28516 -0.69141,-0.28906zM58.97266,44.58984c-0.16406,0 -0.32812,0.04688 -0.47266,0.12891c-0.48047,0.27734 -0.64453,0.89063 -0.36719,1.36719c0.27734,0.47656 0.88672,0.64453 1.36719,0.36719c0.22656,-0.13281 0.39453,-0.35156 0.46484,-0.60937c0.07031,-0.25391 0.03516,-0.52734 -0.10156,-0.75781c-0.17969,-0.31641 -0.52344,-0.50781 -0.89062,-0.49609zM40.95313,44.58984c-0.34375,0.01563 -0.65234,0.20313 -0.82031,0.5c-0.27734,0.47656 -0.11328,1.08984 0.36719,1.36328c0.22656,0.13672 0.5,0.17188 0.75781,0.10156c0.25781,-0.06641 0.47656,-0.23437 0.60547,-0.46484c0.13672,-0.23047 0.17188,-0.50391 0.10156,-0.75781c-0.07031,-0.25781 -0.23828,-0.47656 -0.46484,-0.60937c-0.16797,-0.09766 -0.35937,-0.14062 -0.54687,-0.13281zM32.73438,45.17969c0.65234,0.73828 1.34766,1.43359 2.08594,2.08594l-3.89844,3.89844l-2.08594,-2.08594zM45.33203,46.39063c-0.44922,0.00391 -0.83984,0.30469 -0.95703,0.73828c-0.14453,0.53516 0.17188,1.08203 0.70703,1.22656c0.53516,0.14453 1.08203,-0.17187 1.22656,-0.70703c0.06641,-0.25781 0.03125,-0.53125 -0.10156,-0.76172c-0.13281,-0.22656 -0.35156,-0.39453 -0.60937,-0.46484c-0.08594,-0.02344 -0.17578,-0.03516 -0.26562,-0.03125zM54.69922,46.39063c-0.10156,-0.00391 -0.20312,0.00391 -0.29687,0.03125c-0.53516,0.14453 -0.85156,0.69141 -0.71094,1.22266c0.14453,0.53516 0.69141,0.85156 1.22656,0.71094c0.53516,-0.14453 0.85156,-0.69141 0.70703,-1.22656c-0.11328,-0.42187 -0.48828,-0.72266 -0.92578,-0.73828zM50,47c-0.55078,0 -1,0.44922 -1,1c0,0.55078 0.44922,1 1,1c0.55078,0 1,-0.44922 1,-1c0,-0.55078 -0.44922,-1 -1,-1zM26.17188,49.65234c0.25391,0 0.50391,0.09766 0.70313,0.29688l3.17578,3.17188c0.39844,0.39844 0.39844,1.01563 0,1.41406l-16.17187,16.17188c-0.39844,0.39844 -1.01562,0.39844 -1.41406,0l-3.17187,-3.17187c-0.39844,-0.39844 -0.39844,-1.01562 0,-1.41406l1.70703,-1.70703l2.29297,2.29297l1.41406,-1.41406l-2.29297,-2.29297l1.58594,-1.58594l2.29297,2.29297l1.41406,-1.41406l-2.29297,-2.29297l1.58594,-1.58594l2.29297,2.29297l1.41406,-1.41406l-2.29297,-2.29297l1.58594,-1.58594l2.29297,2.29297l1.41406,-1.41406l-2.29297,-2.29297l1.58594,-1.58594l2.29297,2.29297l1.41406,-1.41406l-2.29297,-2.29297l1.05078,-1.05078c0.19922,-0.19922 0.45313,-0.29687 0.70703,-0.29687z"></path></g></g></svg>